<?xml version="1.0" standalone="no"?>
<!DOCTYPE svg PUBLIC "-//W3C//DTD SVG 20010904//EN"
 "http://www.w3.org/TR/2001/REC-SVG-20010904/DTD/svg10.dtd">
<svg version="1.0" xmlns="http://www.w3.org/2000/svg"
 width="900.000000pt" height="804.000000pt" viewBox="0 0 900.000000 804.000000"
 preserveAspectRatio="xMidYMid meet">
<metadata>
Created by potrace 1.10, written by Peter Selinger 2001-2011
</metadata>
<g transform="translate(0.000000,804.000000) scale(0.100000,-0.100000)"
fill="#000000" stroke="none">
<path d="M705 8025 c-6 -8 -36 -19 -70 -24 -119 -18 -249 -81 -349 -171 -92
-82 -206 -221 -206 -250 0 -5 -6 -21 -14 -37 -32 -66 -45 -101 -52 -143 -11
-61 -11 -3182 0 -3340 4 -69 14 -150 22 -181 8 -31 14 -77 14 -102 0 -24 7
-64 15 -87 8 -23 15 -59 15 -80 0 -21 7 -54 15 -73 8 -20 15 -48 15 -63 0 -14
7 -47 14 -73 8 -25 22 -73 31 -106 9 -33 21 -73 27 -90 6 -16 13 -43 16 -60 2
-16 11 -39 18 -50 8 -11 14 -31 14 -45 0 -14 7 -34 15 -44 8 -11 15 -29 15
-40 0 -12 7 -30 15 -40 8 -11 15 -28 15 -37 0 -10 6 -30 14 -46 8 -15 21 -45
30 -65 52 -122 77 -180 88 -198 4 -8 11 -22 14 -30 3 -8 10 -22 15 -30 5 -8
12 -22 15 -30 3 -8 10 -22 15 -30 5 -8 12 -22 15 -30 3 -8 10 -22 15 -30 5 -8
11 -21 14 -27 13 -33 16 -40 35 -68 11 -16 26 -43 34 -60 26 -52 60 -108 104
-174 23 -35 42 -65 42 -68 0 -3 13 -22 30 -43 16 -21 30 -41 30 -44 0 -9 231
-314 262 -346 13 -14 55 -61 93 -105 88 -102 208 -222 310 -310 44 -38 91 -80
105 -93 50 -47 353 -272 428 -317 9 -6 44 -28 77 -49 33 -22 80 -51 105 -64
76 -42 94 -52 125 -72 17 -11 37 -22 45 -26 8 -3 22 -10 30 -15 8 -5 22 -12
30 -15 8 -3 22 -10 30 -15 8 -5 21 -11 28 -14 6 -3 18 -7 25 -10 6 -3 19 -9
27 -14 8 -5 33 -17 55 -26 22 -10 52 -24 67 -32 14 -7 33 -13 41 -13 8 0 20
-7 27 -15 7 -8 23 -15 35 -15 12 0 28 -7 35 -15 7 -8 22 -15 34 -15 11 0 30
-7 40 -15 11 -8 29 -15 40 -15 12 0 30 -7 40 -15 11 -8 29 -15 41 -15 12 0 30
-7 41 -15 10 -8 31 -15 45 -15 14 0 34 -7 45 -15 10 -8 29 -15 42 -15 13 0 33
-5 45 -12 12 -6 40 -15 62 -19 22 -4 54 -11 70 -17 49 -17 117 -33 170 -41 28
-4 60 -12 72 -19 12 -7 39 -12 60 -12 21 0 60 -7 87 -15 27 -8 72 -15 100 -15
28 0 67 -5 86 -11 37 -12 191 -23 473 -35 179 -8 571 8 667 27 30 6 91 15 135
19 44 4 96 13 115 19 19 6 52 11 73 11 21 0 48 5 59 11 11 6 44 15 72 19 57
10 125 26 171 42 17 6 44 12 60 15 17 3 44 11 62 19 17 8 39 14 50 14 10 1 29
7 43 15 14 8 36 15 50 15 14 0 34 7 44 15 11 8 29 15 40 15 12 0 30 7 40 15
11 8 28 15 37 15 10 0 30 6 46 14 15 7 44 20 63 28 19 8 53 23 75 32 22 10 56
25 75 33 19 8 42 19 50 24 8 5 22 12 30 15 19 8 210 102 230 114 8 5 22 11 30
14 8 4 29 15 45 26 17 11 39 24 50 30 11 6 34 19 50 29 17 11 53 32 80 47 242
130 713 521 890 739 22 27 71 85 109 129 100 117 243 306 268 353 6 13 15 23
20 23 4 0 8 4 8 10 0 5 19 38 43 73 24 34 46 69 50 77 4 8 16 29 27 45 11 17
24 39 30 50 5 11 25 47 44 80 19 33 58 107 86 165 28 58 56 112 61 120 5 8 12
22 15 30 7 17 23 54 50 115 9 22 24 56 32 75 8 19 21 48 28 63 8 16 14 36 14
46 0 9 7 26 15 37 8 10 15 28 15 40 0 11 7 29 15 40 8 10 15 30 15 44 0 15 5
31 11 37 6 6 15 29 19 50 5 21 13 52 18 68 6 17 18 57 27 90 9 33 23 81 31
106 7 26 14 58 14 72 0 13 7 41 15 60 8 20 15 54 15 75 0 22 7 59 15 82 8 23
15 63 15 89 0 25 7 71 15 101 8 30 15 82 15 115 0 110 12 195 26 195 12 0 14
257 14 1581 0 1053 -3 1578 -10 1574 -13 -8 -30 36 -30 78 0 18 -7 41 -15 51
-8 11 -15 27 -15 36 0 9 -11 37 -25 61 -14 24 -28 51 -32 59 -31 70 -212 251
-283 283 -8 4 -35 18 -59 32 -24 14 -50 25 -57 25 -7 0 -28 7 -46 14 -18 8
-59 18 -90 21 -41 5 -58 11 -58 21 0 12 -512 14 -3783 14 -3353 0 -3783 -2
-3792 -15z m5757 -1459 c80 -21 152 -66 211 -134 31 -34 67 -98 67 -118 0 -6
7 -25 15 -40 13 -25 15 -221 15 -1559 0 -1338 -2 -1534 -15 -1559 -8 -15 -15
-34 -15 -40 0 -47 -148 -216 -189 -216 -9 0 -22 -5 -28 -11 -13 -13 -117 -38
-160 -39 -133 -1 -297 99 -352 215 -55 118 -51 31 -51 1125 0 556 -3 1010 -8
1010 -4 0 -678 -671 -1497 -1490 -823 -823 -1512 -1505 -1540 -1523 -74 -48
-138 -67 -227 -67 -75 0 -98 6 -186 49 -44 21 -128 96 -146 129 -57 106 -59
113 -58 227 0 100 2 114 26 155 14 25 30 56 36 68 6 13 683 696 1505 1519 822
822 1495 1499 1495 1504 0 5 -416 9 -1036 9 -876 0 -1040 2 -1062 14 -15 8
-34 17 -42 21 -60 24 -120 79 -167 152 -18 29 -33 60 -33 70 -1 10 -7 29 -15
43 -31 55 -13 195 39 295 39 75 149 162 236 187 72 21 251 23 1671 21 1231 -2
1464 -5 1511 -17z"/>
</g>
</svg>
