<svg version="1" xmlns="http://www.w3.org/2000/svg" width="1200" height="1072" viewBox="0 0 900.000000 804.000000"><path d="M70.5 1.5c-.6.8-3.6 1.9-7 2.4C51.6 5.7 38.6 12 28.6 21 19.4 29.2 8 43.1 8 46c0 .5-.6 2.1-1.4 3.7C3.4 56.3 2.1 59.8 1.4 64 .3 70.1.3 382.2 1.4 398c.4 6.9 1.4 15 2.2 18.1.8 3.1 1.4 7.7 1.4 10.2 0 2.4.7 6.4 1.5 8.7.8 2.3 1.5 5.9 1.5 8 0 2.1.7 5.4 1.5 7.3.8 2 1.5 4.8 1.5 6.3 0 1.4.7 4.7 1.4 7.3.8 2.5 2.2 7.3 3.1 10.6.9 3.3 2.1 7.3 2.7 9 .6 1.6 1.3 4.3 1.6 6 .2 1.6 1.1 3.9 1.8 5 .8 1.1 1.4 3.1 1.4 4.5s.7 3.4 1.5 4.4c.8 1.1 1.5 2.9 1.5 4 0 1.2.7 3 1.5 4 .8 1.1 1.5 2.8 1.5 3.7 0 1 .6 3 1.4 4.6.8 1.5 2.1 4.5 3 6.5 5.2 12.2 7.7 18 8.8 19.8.4.8 1.1 2.2 1.4 3 .3.8 1 2.2 1.5 3 .5.8 1.2 2.2 1.5 3 .3.8 1 2.2 1.5 3 .5.8 1.2 2.2 1.5 3 .3.8 1 2.2 1.5 3 .5.8 1.1 2.1 1.4 2.7 1.3 3.3 1.6 4 3.5 6.8 1.1 1.6 2.6 4.3 3.4 6 2.6 5.2 6 10.8 10.4 17.4 2.3 3.5 4.2 6.5 4.2 6.8 0 .3 1.3 2.2 3 4.3 1.6 2.1 3 4.1 3 4.4 0 .9 23.1 31.4 26.2 34.6 1.3 1.4 5.5 6.1 9.3 10.5 8.8 10.2 20.8 22.2 31 31 4.4 3.8 9.1 8 10.5 9.3 5 4.7 35.3 27.2 42.8 31.7.9.6 4.4 2.8 7.7 4.9 3.3 2.2 8 5.1 10.5 6.4 7.6 4.2 9.4 5.2 12.5 7.2 1.7 1.1 3.7 2.2 4.5 2.6.8.3 2.2 1 3 1.5.8.5 2.2 1.2 3 1.5.8.3 2.2 1 3 1.5.8.5 2.1 1.1 2.8 1.4.6.3 1.8.7 2.5 1 .6.3 1.9.9 2.7 1.4.8.5 3.3 1.7 5.5 2.6 2.2 1 5.2 2.4 6.7 3.2 1.4.7 3.3 1.3 4.1 1.3.8 0 2 .7 2.7 1.5.7.8 2.3 1.5 3.5 1.5 1.2 0 2.8.7 3.5 1.5.7.8 2.2 1.5 3.4 1.5 1.1 0 3 .7 4 1.5 1.1.8 2.9 1.5 4 1.5 1.2 0 3 .7 4 1.5 1.1.8 2.9 1.5 4.1 1.5 1.2 0 3 .7 4.1 1.5 1 .8 3.1 1.5 4.5 1.5s3.4.7 4.5 1.5c1 .8 2.9 1.5 4.2 1.5 1.3 0 3.3.5 4.5 1.2 1.2.6 4 1.5 6.2 1.9 2.2.4 5.4 1.1 7 1.7 4.9 1.7 11.7 3.3 17 4.1 2.8.4 6 1.2 7.2 1.9 1.2.7 3.9 1.2 6 1.2s6 .7 8.7 1.5c2.7.8 7.2 1.5 10 1.5s6.7.5 8.6 1.1c3.7 1.2 19.1 2.3 47.3 3.5 17.9.8 57.1-.8 66.7-2.7 3-.6 9.1-1.5 13.5-1.9 4.4-.4 9.6-1.3 11.5-1.9 1.9-.6 5.2-1.1 7.3-1.1 2.1 0 4.8-.5 5.9-1.1 1.1-.6 4.4-1.5 7.2-1.9 5.7-1 12.5-2.6 17.1-4.2 1.7-.6 4.4-1.2 6-1.5 1.7-.3 4.4-1.1 6.2-1.9 1.7-.8 3.9-1.4 5-1.4 1-.1 2.9-.7 4.3-1.5s3.6-1.5 5-1.5 3.4-.7 4.4-1.5c1.1-.8 2.9-1.5 4-1.5 1.2 0 3-.7 4-1.5 1.1-.8 2.8-1.5 3.7-1.5 1 0 3-.6 4.6-1.4 1.5-.7 4.4-2 6.3-2.8 1.9-.8 5.3-2.3 7.5-3.2 2.2-1 5.6-2.5 7.5-3.3 1.9-.8 4.2-1.9 5-2.4.8-.5 2.2-1.2 3-1.5 1.9-.8 21-10.2 23-11.4.8-.5 2.2-1.1 3-1.4.8-.4 2.9-1.5 4.5-2.6 1.7-1.1 3.9-2.4 5-3 1.1-.6 3.4-1.9 5-2.9 1.7-1.1 5.3-3.2 8-4.7 24.2-13 71.3-52.1 89-73.9 2.2-2.7 7.1-8.5 10.9-12.9 10-11.7 24.3-30.6 26.8-35.3.6-1.3 1.5-2.3 2-2.3.4 0 .8-.4.8-1 0-.5 1.9-3.8 4.3-7.3 2.4-3.4 4.6-6.9 5-7.7.4-.8 1.6-2.9 2.7-4.5 1.1-1.7 2.4-3.9 3-5 .5-1.1 2.5-4.7 4.4-8 1.9-3.3 5.8-10.7 8.6-16.5 2.8-5.8 5.6-11.2 6.1-12 .5-.8 1.2-2.2 1.5-3 .7-1.7 2.3-5.4 5-11.5.9-2.2 2.4-5.6 3.2-7.5.8-1.9 2.1-4.8 2.8-6.3.8-1.6 1.4-3.6 1.4-4.6 0-.9.7-2.6 1.5-3.7.8-1 1.5-2.8 1.5-4 0-1.1.7-2.9 1.5-4 .8-1 1.5-3 1.5-4.4 0-1.5.5-3.1 1.1-3.7.6-.6 1.5-2.9 1.9-5 .5-2.1 1.3-5.2 1.8-6.8.6-1.7 1.8-5.7 2.7-9 .9-3.3 2.3-8.1 3.1-10.6.7-2.6 1.4-5.8 1.4-7.2 0-1.3.7-4.1 1.5-6 .8-2 1.5-5.4 1.5-7.5 0-2.2.7-5.9 1.5-8.2.8-2.3 1.5-6.3 1.5-8.9 0-2.5.7-7.1 1.5-10.1s1.5-8.2 1.5-11.5c0-11 1.2-19.5 2.6-19.5 1.2 0 1.4-25.7 1.4-158.1 0-105.3-.3-157.8-1-157.4-1.3.8-3-3.6-3-7.8 0-1.8-.7-4.1-1.5-5.1-.8-1.1-1.5-2.7-1.5-3.6 0-.9-1.1-3.7-2.5-6.1-1.4-2.4-2.8-5.1-3.2-5.9-3.1-7-21.2-25.1-28.3-28.3-.8-.4-3.5-1.8-5.9-3.2-2.4-1.4-5-2.5-5.7-2.5-.7 0-2.8-.7-4.6-1.4-1.8-.8-5.9-1.8-9-2.1-4.1-.5-5.8-1.1-5.8-2.1C828 .2 776.8 0 449.7 0 114.4 0 71.4.2 70.5 1.5zm575.7 145.9c8 2.1 15.2 6.6 21.1 13.4 3.1 3.4 6.7 9.8 6.7 11.8 0 .6.7 2.5 1.5 4 1.3 2.5 1.5 22.1 1.5 155.9s-.2 153.4-1.5 155.9c-.8 1.5-1.5 3.4-1.5 4 0 4.7-14.8 21.6-18.9 21.6-.9 0-2.2.5-2.8 1.1-1.3 1.3-11.7 3.8-16 3.9-13.3.1-29.7-9.9-35.2-21.5-5.5-11.8-5.1-3.1-5.1-112.5 0-55.6-.3-101-.8-101-.4 0-67.8 67.1-149.7 149-82.3 82.3-151.2 150.5-154 152.3-7.4 4.8-13.8 6.7-22.7 6.7-7.5 0-9.8-.6-18.6-4.9-4.4-2.1-12.8-9.6-14.6-12.9-5.7-10.6-5.9-11.3-5.8-22.7 0-10 .2-11.4 2.6-15.5 1.4-2.5 3-5.6 3.6-6.8.6-1.3 68.3-69.6 150.5-151.9C468.7 295.1 536 227.4 536 226.9s-41.6-.9-103.6-.9c-87.6 0-104-.2-106.2-1.4-1.5-.8-3.4-1.7-4.2-2.1-6-2.4-12-7.9-16.7-15.2-1.8-2.9-3.3-6-3.3-7-.1-1-.7-2.9-1.5-4.3-3.1-5.5-1.3-19.5 3.9-29.5 3.9-7.5 14.9-16.2 23.6-18.7 7.2-2.1 25.1-2.3 167.1-2.1 123.1.2 146.4.5 151.1 1.7z"/></svg>